<?xml version="1.0" standalone="no"?>
<!DOCTYPE svg PUBLIC "-//W3C//DTD SVG 20010904//EN"
 "http://www.w3.org/TR/2001/REC-SVG-20010904/DTD/svg10.dtd">
<svg version="1.0" xmlns="http://www.w3.org/2000/svg"
 width="512.000000pt" height="512.000000pt" viewBox="0 0 512.000000 512.000000"
 preserveAspectRatio="xMidYMid meet">

<g transform="translate(0.000000,512.000000) scale(0.100000,-0.100000)"
fill="#000000" stroke="none">
<path d="M705 4006 c-59 -27 -77 -46 -104 -106 -20 -44 -21 -61 -21 -1137 l0
-1093 -118 0 c-166 0 -162 5 -162 -209 0 -99 5 -180 12 -205 16 -55 99 -138
154 -154 60 -18 4128 -18 4188 0 55 16 138 99 154 154 7 25 12 106 12 206 0
213 4 208 -163 208 l-117 0 0 1093 c0 1076 -1 1093 -21 1137 -27 60 -45 79
-104 106 l-50 24 -1805 0 -1805 0 -50 -24z m3670 -141 c18 -18 25 -35 25 -65
l0 -40 -1840 0 -1840 0 0 40 c0 30 7 47 25 65 l24 25 1791 0 1791 0 24 -25z
m25 -1220 l0 -975 -1840 0 -1840 0 0 975 0 975 1840 0 1840 0 0 -975z m-2340
-1202 c0 -75 3 -90 22 -110 l21 -23 458 0 458 0 20 26 c17 22 21 41 21 110 l0
84 810 0 810 0 0 -116 0 -116 -34 -34 -34 -34 -2047 0 c-1892 0 -2049 1 -2075
17 -42 24 -50 53 -50 173 l0 110 810 0 810 0 0 -87z m860 47 l0 -40 -360 0
-360 0 0 40 0 40 360 0 360 0 0 -40z"/>
</g>
</svg>
