<svg width="512" height="512" viewBox="0 0 512 512" fill="none" xmlns="http://www.w3.org/2000/svg">
<path fill-rule="evenodd" clip-rule="evenodd" d="M131.4 107.2C134.4 100.5 142.6 92.9001 149.1 90.7001C153.5 89.3001 164.6 89.1001 255.1 89.1001C347.6 89.0001 356.7 89.1001 361.5 90.7001C368.4 92.9001 376.5 100.3 379.6 107.2L382 112.5V399.5L379.6 404.8C376.5 411.7 368.4 419.1 361.5 421.3C356.7 422.9 347.5 423 255.5 423C220.777 423 197.849 422.986 182.5 422.882V409H255.3C354 409 354.9 409 359.1 406.9C364.7 404.2 367.5 399.6 368.2 392L368.8 386H182.5V372H368.5V126H142.5V273.04L129 273.006V112.5L131.4 107.2ZM364.9 109.5C364.1 108.2 361.4 106.2 359.1 105C354.9 103 353.6 103 255.4 103C156.9 103 156 103 151.8 105.1C149.5 106.2 146.9 108.2 146 109.6L144.5 112H366.5L364.9 109.5Z" fill="black"/>
<path d="M251.639 393.701C248.039 397.701 250.739 403.901 256.139 403.901C261.239 403.901 263.939 397.001 260.139 393.601C257.739 391.401 253.639 391.501 251.639 393.701Z" fill="black"/>
<path d="M89.1417 273.395C83.8628 274.654 79.0197 278.674 76.5498 283.904L75 287.149V363.427V439.705L76.5498 442.95C78.487 447.018 81.7318 450.263 85.8969 452.249L89.0448 453.75H129H168.955L172.2 452.152C176.317 450.118 179.368 447.067 181.402 442.95L183 439.705V363.427V287.149L181.402 283.904C179.368 279.739 176.123 276.494 172.103 274.606L168.955 273.104L129.969 273.007C108.272 272.959 90.1587 273.153 89.1417 273.395ZM101.007 283.468C101.249 288.021 102.557 290.394 105.85 292.573L107.884 293.929L127.741 294.075C150.261 294.22 150.794 294.172 153.942 291.072C156.17 288.796 157.09 286.326 157.09 282.354V279.642H161.594C167.309 279.642 170.117 280.563 172.83 283.275C176.752 287.149 176.462 280.95 176.462 363.427C176.462 445.953 176.752 439.705 172.83 443.58C169.052 447.406 170.892 447.26 127.983 447.115L90.0135 446.97L87.6888 445.614C85.0735 444.064 82.7489 441.158 82.0224 438.446C81.6834 437.284 81.5865 411.228 81.635 362.362L81.7803 288.118L83.1363 285.841C85.8 281.289 89.1901 279.691 96.1157 279.642H100.765L101.007 283.468ZM150.309 282.306C150.309 284.534 150.116 285.212 149.099 286.18L147.936 287.391H129H110.064L108.901 286.18C107.884 285.212 107.691 284.534 107.691 282.306V279.642H129H150.309V282.306Z" fill="black"/>
<path d="M105.753 432.199C104.543 433.409 104.494 435.153 105.705 436.606L106.625 437.768H129H151.375L152.295 436.606C153.506 435.153 153.457 433.409 152.247 432.199C151.326 431.278 150.648 431.23 129 431.23C107.352 431.23 106.674 431.278 105.753 432.199Z" fill="black"/>
</svg>
