<?xml version="1.0" standalone="no"?>
<!DOCTYPE svg PUBLIC "-//W3C//DTD SVG 20010904//EN"
 "http://www.w3.org/TR/2001/REC-SVG-20010904/DTD/svg10.dtd">
<svg version="1.0" xmlns="http://www.w3.org/2000/svg"
 width="512.000000pt" height="512.000000pt" viewBox="0 0 512.000000 512.000000"
 preserveAspectRatio="xMidYMid meet">

<g transform="translate(0.000000,512.000000) scale(0.100000,-0.100000)"
fill="#000000" stroke="none">
<path d="M1496 4213 c-65 -22 -147 -98 -177 -165 l-24 -53 0 -1435 0 -1435 24
-53 c31 -69 112 -143 181 -165 48 -16 140 -17 1060 -17 920 0 1012 1 1060 17
69 22 150 96 181 165 l24 53 0 1435 0 1435 -24 53 c-31 69 -112 143 -181 165
-48 16 -139 17 -1064 16 -905 0 -1016 -2 -1060 -16z m2100 -143 c23 -12 50
-32 58 -45 l16 -25 -1110 0 -1110 0 15 24 c9 14 35 34 58 45 42 21 51 21 1036
21 982 0 995 0 1037 -20z m94 -1440 l0 -1230 -1130 0 -1130 0 0 1230 0 1230
1130 0 1130 0 0 -1230z m-3 -1430 c-7 -76 -35 -122 -91 -149 -42 -21 -51 -21
-1038 -21 l-995 0 -43 23 c-56 29 -90 90 -90 159 l0 48 1131 0 1132 0 -6 -60z"/>
<path d="M2517 1182 c-36 -40 -9 -102 45 -102 51 0 78 69 40 103 -24 22 -65
21 -85 -1z"/>
</g>
</svg>
